<svg xmlns="http://www.w3.org/2000/svg" width="324" height="99" viewBox="0 0 324.26 99.09" fill="#fff"><title>MyBB</title><path d="M12.3 99.1l5.75-18.77C7 71.9 0 59.67 0 46.07 0 20.63 24.4 0 54.5 0S109 20.63 109 46.07c0 12.67-5.2 19.85-15 28.18l5.93 17.9-13-8c-8.48 4.6-21.55 8-32.38 8a62.63 62.63 0 0 1-24.65-5zM4.4 46v1.87a4 4 0 0 0 0 .69 10.32 10.32 0 0 0 .1 1.13c0 .37 0 .57.1.9a31.65 31.65 0 0 0 .23 1.53c.53-10.37 7.1-19.33 14.9-26 12.2-10.35 34.2-20.04 48.55-7.93a32 32 0 0 1 5 5.46 57.19 57.19 0 0 1 16.9 9.06c4.83 3.77 10.3 11.53 12.7 17.57V46c0-23-22-41.73-49.24-41.73S4.4 23 4.4 46zm62 30.23c-8.3 3.2-21.68 7.23-30.6 6.63L32 84.63a90.52 90.52 0 0 0 9 2.14c.77.16 4 .66 4.72.76l2.42.23 3 .17c.9 0 1.74.06 2.63.06.6 0 1.57 0 3-.06.4 0 1.17 0 2.3-.1.5 0 1.44-.14 2.87-.3l2.3-.34q.66-.1 2.8-.54l3.3-.82q.6-.16 4.44-1.4l8.35-3.23-6.9-4.94c-2.88.2-7 .1-9.87 0zm32.26-20.4c.2-9.07-7-16.2-14-20.73a32.11 32.11 0 0 0-1.63-1 51.63 51.63 0 0 0-5.35-2.84c8 12.88 8.78 33.74-5.26 41.34-.5.27-1 .54-1.56.8h2.3c.74 0 1.5 0 2.2-.08 3-.17 4.16.9 6.7 2.66l1.14.8.26-.15-.26.16 9.26 6.46-4.12-10-.2.15.2-.16-.44-1.06a.27.27 0 0 1 .12-.06c5.04-3.5 10.44-9.67 10.6-16.27zM62.25 18c-11.43-6.33-25.23.4-34.5 7.54-8.9 6.83-18.6 17.18-17.16 29 1.06 8.75 6.34 16.87 13.68 22.2h-.05c.1 0 .16.1.15.13l-5.12 13.56L31.8 81c3.3-2.5 4.94-2.56 9-2.48C57.9 79 77.35 72 77.8 53c.28-11.94-3.8-28.5-15.55-35zm-28.8 7.9s10.83-11 24.65-5.28c14.9 6.14 16.23 28.1 16.23 28.1-16-35.78-40.88-22.8-40.88-22.8zm158.73-1.73l-5.3 51.2c-.16 1.42-1.5 2.2-4.42 2.2h-1.66c-3 0-4-.8-4-2.2l3.8-36.26h-.32L165 62.08a3.42 3.42 0 0 1-2.85 1.35h-2.6a2.55 2.55 0 0 1-2.45-1.35L146.43 39l-.23-.16-3.87 36.5c-.16 1.42-1.5 2.2-4.35 2.2h-1.66c-3 0-3.95-.8-3.95-2.2l5.38-51.2c.07-1.42 1.42-2.2 4.34-2.2h3.7c2.14 0 3.64.55 4.27 1.9l11.06 23.94 1.1 3 2-3.24 16-23.7c.86-1.34 2.37-1.9 4.5-1.9h3.55c2.94.06 3.9.8 3.9 2.23zm41.95 13.27a3.69 3.69 0 0 1-.31 1.42L209.24 92.1c-.55 1.2-2.13 1.66-4.35 1.66h-1.26c-2.6 0-3.8-.55-3.8-1.42a4 4 0 0 1 .47-1.5l7.1-14.22-9.56-38.87c0-1.1 1.27-1.8 4.5-1.8h1.8c2 0 3.56.4 3.87 1.5l4.1 17.38c.48 2 1 5.45 1.42 8.37h.24l3.08-8.37 7.82-17.38c.48-1.1 2-1.5 4.1-1.5h1.34c2.77 0 3.95.55 3.95 1.5zm43.3-3.08c0 6.08-4.5 11.77-10 13.74l-.08.32c3.7.8 9.64 4.74 9.64 11.6 0 11.45-8.45 17.38-21.88 17.38h-15.67c-1.9 0-2.6-.63-2.6-2.3 0-.55.24-2 5.2-50.16.16-2 1.1-2.85 3.16-2.85h15.25c11.77 0 16.98 4.9 16.98 12.25zm-28.12 19.2l-1.58 15.1h9.3c5.7 0 9.56-3.24 9.56-8.7 0-4.1-3.24-6.4-9.24-6.4zm2.45-22.75l-1.5 14h6.95c5.85 0 9.48-3.7 9.48-8.13 0-3.87-2.6-5.85-8.06-5.85zm72.52 3.56c0 6.08-4.5 11.77-9.95 13.74l-.08.32c3.7.8 9.63 4.74 9.63 11.6 0 11.45-8.45 17.38-21.88 17.38h-15.72c-1.9 0-2.6-.63-2.6-2.3 0-.55.23-2 5.2-50.16.16-2 1.1-2.85 3.16-2.85h15.24c11.73 0 17 4.9 17 12.25zm-28.12 19.2l-1.58 15.1h9.24c5.7 0 9.56-3.24 9.56-8.7 0-4.1-3.24-6.4-9.24-6.4zm2.45-22.75l-1.5 14h7c5.84 0 9.48-3.7 9.48-8.13 0-3.87-2.6-5.85-8.06-5.85z"/></svg>
