<svg width="48" height="44" viewBox="0 0 48 44" xmlns="http://www.w3.org/2000/svg"><g fill-rule="nonzero" fill="#FFF"><path d="M5.42 44l2.532-8.333C3.07 31.922 0 26.495 0 20.457 0 9.158 10.745 0 24 0s24 9.159 24 20.456c0 5.628-2.294 8.816-6.61 12.514L44 40.912l-5.74-3.554c-3.735 2.045-9.49 3.554-14.26 3.554-3.907 0-7.596-.795-10.856-2.207L5.419 44zM1.934 20.427c0 .28 0 .555.024.83 0 .103 0 .205.02.307 0 .17.027.335.043.5.015.165.023.252.039.393.028.228.062.455.102.68.23-4.602 3.13-8.58 6.56-11.534 5.334-4.604 15.026-8.908 21.34-3.53a14.137 14.137 0 0 1 2.207 2.424 25.091 25.091 0 0 1 7.437 4.02c2.129 1.677 4.574 3.923 5.597 7.308v-1.398c0-10.233-9.707-18.53-21.684-18.53-11.978 0-21.685 8.297-21.685 18.53zm27.47 13.069c-6.49 2.375-11.043 3.474-13.657 3.297l-1.639.788c1.022.352 2.886.727 3.947.95.34.07 1.749.292 2.078.337l1.066.099 1.34.075c.4 0 .766.027 1.155.027.26 0 .694-.008 1.303-.023.178 0 .518-.016 1.019-.049.214-.018.635-.065 1.263-.14l1.015-.152c.194-.032.603-.111 1.227-.238l1.455-.364c.171-.048.822-.257 1.953-.628.591-.217 3.498-1.342 3.678-1.433l-1.393-1.145c-.682.046-1.834.086-3.021-.234-.68-.183-1.61-.572-2.79-1.167zm14.018-8.704c.093-4.027-3.104-7.19-6.172-9.205-.231-.153-.47-.304-.717-.453a22.48 22.48 0 0 0-2.357-1.263c3.556 5.73 3.897 14.985-2.284 18.364-.225.122-.456.24-.688.352 1.585.528 2.766.792 3.546.792.464 0 .91-.097 1.334-.29l4.63 3.867-1.814-4.46-.193-.471c.014-.015 4.65-4.303 4.715-7.233zM26.73 8.987c-5.03-2.81-11.148.215-15.225 3.384-3.917 3.034-7.467 6.607-6.84 11.839.466 3.886 2.792 7.492 6.027 9.858.013.015-.53 1.614-1.628 4.797l4.533-3.852c2.956-.154 4.901-.348 5.837-.583 4.174-1.048 14.825-2.453 14.825-10.891 0-5.099-2.371-11.675-7.529-14.552z"/><path d="M15 13.024s4.766-4.796 10.856-2.308C32.42 13.4 33 23 33 23c-7.054-15.648-18-9.976-18-9.976z"/></g></svg>
