<?xml version="1.0" encoding="UTF-8"?>
<svg width="48px" height="44px" viewBox="0 0 48 44" version="1.1" xmlns="http://www.w3.org/2000/svg" xmlns:xlink="http://www.w3.org/1999/xlink">
	<!-- Generator: Sketch 47 (45396) - http://www.bohemiancoding.com/sketch -->
	<title>Artboard</title>
	<desc>Created with Sketch.</desc>
	<defs></defs>
	<g id="Page-1" stroke="none" stroke-width="1" fill="none" fill-rule="evenodd">
		<g id="Artboard" fill-rule="nonzero" fill="#FFFFFF">
			<g id="logo-knockout-copy">
				<path d="M5.41935484,44 L7.95197907,35.6667779 C3.06986629,31.9223098 0,26.494791 0,20.4561403 C0,9.15852599 10.745166,0 24,0 C37.254834,0 48,9.15852599 48,20.4561403 C48,26.0841966 45.7058007,29.2716901 41.3907516,32.9702501 L43.9993644,40.9122808 L38.2604176,37.3583502 C34.5245211,39.4029519 28.769472,40.9122808 24,40.9122808 C20.092974,40.9122808 16.4040001,40.1165437 13.1439925,38.70484 L5.41935484,44 Z M1.93548387,20.4271865 C1.93548387,20.7065228 1.93548387,20.9819251 1.95896845,21.2573273 C1.95896845,21.3596196 1.95896845,21.4619119 1.97853893,21.564204 C1.97853893,21.7333798 2.0059376,21.8986211 2.02159398,22.0638623 C2.03725038,22.2291038 2.04507856,22.3156588 2.06073495,22.4572942 C2.08943833,22.6854844 2.12336049,22.9123635 2.16250145,23.1379311 C2.39343315,18.5347798 5.29377849,14.557185 8.72252684,11.6025126 C14.0574401,6.99936133 23.7487425,2.69521815 30.0621798,8.07342996 C30.8890816,8.79245068 31.629916,9.6057692 32.2697302,10.4969695 C34.9565273,11.4060661 37.4709391,12.7655422 39.7065131,14.5178418 C41.8357815,16.193861 44.2808717,18.4403183 45.3036707,21.8249337 L45.3036707,20.4271865 C45.3036707,10.194027 35.596712,1.89655173 23.6195773,1.89655173 C11.6424427,1.89655173 1.93548387,10.194027 1.93548387,20.4271865 Z M29.4043584,33.4960212 C22.914631,35.870793 18.3624295,36.9698204 15.7477539,36.7931034 L14.10901,37.5807562 C15.1305188,37.9329397 16.9948039,38.3084535 18.0563681,38.5312411 C18.3959016,38.6019278 19.8048322,38.822824 20.1336716,38.8682655 C20.6362882,38.9137071 20.9918627,38.9465259 21.2003951,38.9667221 L22.5398149,39.042458 C22.9408387,39.042458 23.3057704,39.0689655 23.6947636,39.0689655 C23.9540924,39.0689655 24.3885347,39.061392 24.9980911,39.0462448 C25.176324,39.0462448 25.5158575,39.0298354 26.0166916,38.9970165 C26.2305711,38.9785033 26.6516462,38.9317995 27.2799169,38.8569051 L28.2945073,38.7054334 C28.4887811,38.6734561 28.8978253,38.5939334 29.5216402,38.4668656 L30.9773569,38.1033336 C31.1484604,38.0553675 31.7994558,37.8458317 32.9303431,37.4747261 C33.5211849,37.2576166 36.4278342,36.1328033 36.6082949,36.0419202 L35.2154964,34.8965517 C34.5326962,34.9428822 33.3810792,34.9833073 32.1937046,34.66313 C31.5139821,34.4798418 30.5842,34.0908056 29.4043584,33.4960212 Z M43.4225067,24.7924545 C43.5157695,20.7652592 40.3191089,17.602678 37.2510867,15.5874366 C37.0195378,15.4340196 36.7804851,15.2827944 36.5339285,15.1337607 C35.7730455,14.6660954 34.985922,14.2445673 34.1766325,13.8713583 C37.7334802,19.6014819 38.0743715,28.8558123 31.8933036,32.2353687 C31.6681867,32.3570066 31.4366378,32.4753568 31.2050889,32.5871321 C32.789582,33.1152509 33.9714208,33.3793103 34.7506053,33.3793103 C35.2154964,33.3793103 35.6604218,33.2824737 36.0853816,33.0888005 L40.7146716,36.9562279 L38.9008724,32.4950819 L38.7079149,32.0249684 C38.7222947,32.0095419 43.3581876,27.7216227 43.4225067,24.7924545 Z M26.7312349,8.9867374 C21.7011458,6.17723275 15.5827789,9.20165527 11.5060533,12.3713528 C7.58888631,15.4045562 4.03942091,18.9775419 4.66568895,24.2098177 C5.13239825,28.0961094 7.4579668,31.7018301 10.6930201,34.0677288 C10.7063167,34.0828947 10.1637684,35.6818923 9.0653753,38.8647215 L13.598063,35.0132626 C16.5537792,34.8590362 18.4994008,34.664518 19.4349277,34.4297082 C23.6088407,33.3820892 34.2598453,31.9772883 34.2598453,23.5387214 C34.2598453,18.4403183 31.888971,11.8644891 26.7312349,8.9867374 Z" id="Combined-Shape"></path>
				<path d="M15,13.023968 C15,13.023968 19.7656676,8.22765416 25.8555858,10.7160238 C32.4196185,13.3998546 33,23 33,23 C25.9455042,7.35183822 15,13.023968 15,13.023968 L15,13.023968 L15,13.023968 Z" id="Path"></path>
			</g>
		</g>
	</g>
</svg>
